<svg width="20" height="20" viewBox="0 0 20 20" fill="none" xmlns="http://www.w3.org/2000/svg">
<g clip-path="url(#clip0_22_415)">
<path d="M6.04468 15.412L6.64862 15.7641C7.65758 16.3525 8.80425 16.6666 10.0008 16.6666C13.6828 16.6666 16.6675 13.6819 16.6675 9.99996C16.6675 6.31806 13.6828 3.33329 10.0008 3.33329C6.31892 3.33329 3.33415 6.31806 3.33415 9.99996C3.33415 11.1969 3.64851 12.344 4.23722 13.3531L4.5892 13.9565L4.04463 15.9578L6.04468 15.412ZM1.67097 18.3333L2.7976 14.1929C2.07912 12.9613 1.66748 11.5287 1.66748 9.99996C1.66748 5.39758 5.39844 1.66663 10.0008 1.66663C14.6032 1.66663 18.3342 5.39758 18.3342 9.99996C18.3342 14.6023 14.6032 18.3333 10.0008 18.3333C8.47259 18.3333 7.04043 17.922 5.80905 17.2039L1.67097 18.3333ZM6.9936 6.09023C7.10517 6.08239 7.21711 6.08119 7.32883 6.08664C7.37396 6.08961 7.41888 6.09483 7.46383 6.10002C7.59654 6.11534 7.74248 6.19617 7.79155 6.30741C8.04015 6.87109 8.28137 7.438 8.51517 8.00798C8.56675 8.13381 8.53567 8.2969 8.4375 8.45471C8.38767 8.53563 8.3094 8.64912 8.21873 8.76521C8.12449 8.88579 7.92166 9.10754 7.92166 9.10754C7.92166 9.10754 7.83948 9.20604 7.87046 9.32862C7.88253 9.37496 7.92101 9.44246 7.9559 9.49921C7.97523 9.53062 7.99317 9.55871 8.00481 9.57812C8.21808 9.93421 8.50475 10.2952 8.85492 10.6346C8.95525 10.7319 9.05259 10.8311 9.15725 10.9233C9.5475 11.2674 9.989 11.5485 10.4658 11.7568L10.4701 11.7587C10.5405 11.789 10.5767 11.8056 10.6798 11.8494C10.7318 11.8714 10.7849 11.8904 10.8395 11.9048C10.8593 11.91 10.8795 11.9129 10.8998 11.9143C11.0346 11.9224 11.1125 11.836 11.1458 11.7962C11.7487 11.0658 11.8038 11.0181 11.808 11.0185V11.0198C11.8873 10.9363 12.0118 10.9073 12.123 10.9141C12.1738 10.9172 12.2243 10.927 12.2704 10.948C12.7136 11.1502 13.4382 11.4655 13.4382 11.4655L13.9228 11.6834C14.0039 11.7225 14.078 11.8148 14.0816 11.9045C14.0838 11.9602 14.0898 12.0502 14.0698 12.2149C14.0438 12.4305 13.9782 12.69 13.913 12.826C13.8672 12.9215 13.8078 13.0061 13.7388 13.0778C13.6453 13.175 13.5758 13.234 13.4633 13.3178C13.3948 13.3688 13.3593 13.3928 13.3593 13.3928C13.2435 13.4658 13.1783 13.5023 13.0403 13.5757C12.8258 13.69 12.5888 13.7556 12.3461 13.7681C12.1913 13.776 12.037 13.7872 11.8824 13.7789C11.8756 13.7785 11.4089 13.7068 11.4089 13.7068C10.224 13.3951 9.12817 12.8113 8.20862 12.0016C8.02061 11.8361 7.84625 11.657 7.66828 11.4799C6.9274 10.7423 6.36652 9.94696 6.02641 9.19462C5.85869 8.82362 5.75249 8.42629 5.75082 8.01744C5.74774 7.51167 5.91333 7.01929 6.22141 6.61818C6.28214 6.5391 6.33978 6.45708 6.43924 6.36318C6.54457 6.26372 6.6116 6.21033 6.68381 6.17338C6.78006 6.12414 6.88578 6.09781 6.9936 6.09023Z" fill="#217FE7"/>
</g>
<defs>
<clipPath id="clip0_22_415">
<rect width="20" height="20" fill="white"/>
</clipPath>
</defs>
</svg>
