<svg width="20" height="20" viewBox="0 0 20 20" fill="none" xmlns="http://www.w3.org/2000/svg">
<g clip-path="url(#clip0_8_43)">
<path d="M11.6666 11.8767V13.6178C11.1453 13.4336 10.5844 13.3333 9.99998 13.3333C7.23855 13.3333 4.99998 15.5719 4.99998 18.3333H3.33331C3.33331 14.6514 6.31808 11.6667 9.99998 11.6667C10.5755 11.6667 11.134 11.7396 11.6666 11.8767ZM9.99998 10.8333C7.23748 10.8333 4.99998 8.59583 4.99998 5.83333C4.99998 3.07083 7.23748 0.833334 9.99998 0.833334C12.7625 0.833334 15 3.07083 15 5.83333C15 8.59583 12.7625 10.8333 9.99998 10.8333ZM9.99998 9.16667C11.8416 9.16667 13.3333 7.675 13.3333 5.83333C13.3333 3.99167 11.8416 2.5 9.99998 2.5C8.15831 2.5 6.66665 3.99167 6.66665 5.83333C6.66665 7.675 8.15831 9.16667 9.99998 9.16667ZM14.8274 16.5952L17.7736 13.6489L18.9521 14.8274L14.8274 18.9522L11.8811 16.0059L13.0596 14.8274L14.8274 16.5952Z" fill="white"/>
</g>
<defs>
<clipPath id="clip0_8_43">
<rect width="20" height="20" fill="white"/>
</clipPath>
</defs>
</svg>
