<svg width="20" height="20" viewBox="0 0 20 20" fill="none" xmlns="http://www.w3.org/2000/svg">
<g clip-path="url(#clip0_22_404)">
<path d="M16.3391 5.82906C16.2756 5.58083 16.096 5.39355 15.8903 5.33577C15.5249 5.23389 13.7508 5.00004 10.0008 5.00004C6.25082 5.00004 4.4771 5.23398 4.11021 5.33607C3.90647 5.39273 3.72692 5.57998 3.66258 5.82906C3.57192 6.18273 3.33415 7.66333 3.33415 10C3.33415 12.3367 3.57192 13.8174 3.66283 14.172C3.72605 14.4193 3.90563 14.6065 4.11043 14.664C4.4771 14.7661 6.25082 15 10.0008 15C13.7508 15 15.5249 14.7662 15.8914 14.664C16.0952 14.6074 16.2748 14.4201 16.3391 14.171C16.4298 13.8174 16.6675 12.3334 16.6675 10C16.6675 7.66671 16.4298 6.18273 16.3391 5.82906ZM17.9535 5.41519C18.3342 6.90004 18.3342 10 18.3342 10C18.3342 10 18.3342 13.1 17.9535 14.5849C17.7414 15.4061 17.1225 16.0515 16.338 16.2697C14.9143 16.6667 10.0008 16.6667 10.0008 16.6667C10.0008 16.6667 5.09031 16.6667 3.66364 16.2697C2.87622 16.0485 2.25733 15.403 2.04812 14.5849C1.66748 13.1 1.66748 10 1.66748 10C1.66748 10 1.66748 6.90004 2.04812 5.41519C2.26023 4.59398 2.87913 3.94852 3.66364 3.73034C5.09031 3.33337 10.0008 3.33337 10.0008 3.33337C10.0008 3.33337 14.9143 3.33337 16.338 3.73034C17.1254 3.95156 17.7443 4.59701 17.9535 5.41519ZM8.33417 12.9167V7.08337L13.3342 10L8.33417 12.9167Z" fill="#217FE7"/>
</g>
<defs>
<clipPath id="clip0_22_404">
<rect width="20" height="20" fill="white"/>
</clipPath>
</defs>
</svg>
