<svg width="20" height="20" viewBox="0 0 20 20" fill="none" xmlns="http://www.w3.org/2000/svg">
<g clip-path="url(#clip0_8_56)">
<path d="M10.9335 14.1857L7.43437 12.277C6.82608 12.9271 5.96047 13.3333 4.99996 13.3333C3.15901 13.3333 1.66663 11.8409 1.66663 10C1.66663 8.15905 3.15901 6.66667 4.99996 6.66667C5.96042 6.66667 6.826 7.07288 7.43428 7.72288L10.9335 5.81428C10.868 5.55368 10.8333 5.28089 10.8333 5C10.8333 3.15905 12.3257 1.66667 14.1666 1.66667C16.0075 1.66667 17.5 3.15905 17.5 5C17.5 6.84095 16.0075 8.33333 14.1666 8.33333C13.2061 8.33333 12.3405 7.92709 11.7322 7.27705L8.2331 9.18567C8.29854 9.44625 8.33329 9.71908 8.33329 10C8.33329 10.2809 8.29855 10.5537 8.23313 10.8143L11.7323 12.7229C12.3405 12.0729 13.2061 11.6667 14.1666 11.6667C16.0075 11.6667 17.5 13.1591 17.5 15C17.5 16.8409 16.0075 18.3333 14.1666 18.3333C12.3257 18.3333 10.8333 16.8409 10.8333 15C10.8333 14.7191 10.868 14.4463 10.9335 14.1857ZM4.99996 11.6667C5.92043 11.6667 6.66663 10.9205 6.66663 10C6.66663 9.0795 5.92043 8.33333 4.99996 8.33333C4.07948 8.33333 3.33329 9.0795 3.33329 10C3.33329 10.9205 4.07948 11.6667 4.99996 11.6667ZM14.1666 6.66667C15.0871 6.66667 15.8333 5.92048 15.8333 5C15.8333 4.07953 15.0871 3.33333 14.1666 3.33333C13.2461 3.33333 12.5 4.07953 12.5 5C12.5 5.92048 13.2461 6.66667 14.1666 6.66667ZM14.1666 16.6667C15.0871 16.6667 15.8333 15.9205 15.8333 15C15.8333 14.0795 15.0871 13.3333 14.1666 13.3333C13.2461 13.3333 12.5 14.0795 12.5 15C12.5 15.9205 13.2461 16.6667 14.1666 16.6667Z" fill="#217FE7"/>
</g>
<defs>
<clipPath id="clip0_8_56">
<rect width="20" height="20" fill="white"/>
</clipPath>
</defs>
</svg>
