<svg width="20" height="20" viewBox="0 0 20 20" fill="none" xmlns="http://www.w3.org/2000/svg">
<g clip-path="url(#clip0_22_371)">
<path d="M11.6667 15.8333H15.8333V4.16667H4.16667V15.8333H10V11.6667H8.33333V10H10V8.6215C10 7.50713 10.116 7.10302 10.3339 6.69561C10.5518 6.2882 10.8715 5.96847 11.2789 5.75058C11.5978 5.58003 11.9935 5.4771 12.6847 5.43295C12.9592 5.41542 13.3142 5.43777 13.75 5.5V7.08333H13.3333C12.5689 7.08333 12.2535 7.11943 12.0649 7.22027C11.948 7.28282 11.8662 7.36465 11.8036 7.48161C11.7027 7.67015 11.6667 7.85711 11.6667 8.6215V10H13.75L13.3333 11.6667H11.6667V15.8333ZM3.33333 2.5H16.6667C17.1269 2.5 17.5 2.8731 17.5 3.33333V16.6667C17.5 17.1269 17.1269 17.5 16.6667 17.5H3.33333C2.8731 17.5 2.5 17.1269 2.5 16.6667V3.33333C2.5 2.8731 2.8731 2.5 3.33333 2.5Z" fill="#217FE7"/>
</g>
<defs>
<clipPath id="clip0_22_371">
<rect width="20" height="20" fill="white"/>
</clipPath>
</defs>
</svg>
