<svg width="20" height="20" viewBox="0 0 20 20" fill="none" xmlns="http://www.w3.org/2000/svg">
<g clip-path="url(#clip0_8_48)">
<path d="M15.8334 11.6667V14.1667H18.3334V15.8333H15.8325L15.8334 18.3333H14.1667L14.1659 15.8333H11.6667V14.1667H14.1667V11.6667H15.8334ZM16.8688 3.96457C18.7541 5.85377 18.819 8.86342 17.0662 10.8267L15.8833 9.64508C16.9917 8.375 16.9334 6.38333 15.6891 5.14185C14.437 3.89253 12.423 3.83927 11.1141 5.01417L10.0015 6.0128L8.88837 5.01494C7.57577 3.83841 5.56251 3.89017 4.3096 5.14308C3.06815 6.38452 3.00582 8.37283 4.1499 9.68608L11.1766 16.7242L9.99987 17.9042L2.93444 10.8276C1.18083 8.86425 1.24638 5.84927 3.13109 3.96457C5.01793 2.07772 8.03762 2.01416 10.0008 3.77387C11.9583 2.01677 14.9833 2.0751 16.8688 3.96457Z" fill="#217FE7"/>
</g>
<defs>
<clipPath id="clip0_8_48">
<rect width="20" height="20" fill="white"/>
</clipPath>
</defs>
</svg>
