<svg width="20" height="20" viewBox="0 0 20 20" fill="none" xmlns="http://www.w3.org/2000/svg">
<g clip-path="url(#clip0_22_349)">
<path d="M16.6151 6.66671H17.5C18.4205 6.66671 19.1667 7.4129 19.1667 8.33337V11.6667C19.1667 12.5872 18.4205 13.3334 17.5 13.3334H16.6151C16.205 16.622 13.3997 19.1667 10 19.1667V17.5C12.7614 17.5 15 15.2615 15 12.5V7.50004C15 4.73862 12.7614 2.50004 10 2.50004C7.23857 2.50004 5 4.73862 5 7.50004V13.3334H2.49999C1.57952 13.3334 0.833328 12.5872 0.833328 11.6667V8.33337C0.833328 7.4129 1.57952 6.66671 2.49999 6.66671H3.3849C3.79499 3.37812 6.60031 0.833374 10 0.833374C13.3997 0.833374 16.205 3.37812 16.6151 6.66671ZM2.49999 8.33337V11.6667H3.33333V8.33337H2.49999ZM16.6667 8.33337V11.6667H17.5V8.33337H16.6667ZM6.4662 13.1541L7.34965 11.7406C8.118 12.2219 9.0265 12.5 10 12.5C10.9735 12.5 11.882 12.2219 12.6503 11.7406L13.5338 13.1541C12.5093 13.7958 11.298 14.1667 10 14.1667C8.702 14.1667 7.49068 13.7958 6.4662 13.1541Z" fill="#217FE7"/>
</g>
<defs>
<clipPath id="clip0_22_349">
<rect width="20" height="20" fill="white"/>
</clipPath>
</defs>
</svg>
