<svg width="16" height="16" viewBox="0 0 16 16" fill="none" xmlns="http://www.w3.org/2000/svg">
<g clip-path="url(#clip0_8_28)">
<path d="M8 15.8186L3.75736 11.576C1.41421 9.2328 1.41421 5.43384 3.75736 3.09069C6.10051 0.747545 9.89947 0.747545 12.2427 3.09069C14.5858 5.43384 14.5858 9.2328 12.2427 11.576L8 15.8186ZM11.2998 10.6331C13.1223 8.81073 13.1223 5.85595 11.2998 4.0335C9.4774 2.21105 6.52261 2.21105 4.70017 4.0335C2.87772 5.85595 2.87772 8.81073 4.70017 10.6331L8 13.933L11.2998 10.6331ZM8 8.66667C7.2636 8.66667 6.66667 8.06973 6.66667 7.33333C6.66667 6.59695 7.2636 6 8 6C8.7364 6 9.33333 6.59695 9.33333 7.33333C9.33333 8.06973 8.7364 8.66667 8 8.66667Z" fill="#217FE7"/>
</g>
<defs>
<clipPath id="clip0_8_28">
<rect width="16" height="16" fill="white"/>
</clipPath>
</defs>
</svg>
