<svg width="16" height="16" viewBox="0 0 16 16" fill="none" xmlns="http://www.w3.org/2000/svg">
<g clip-path="url(#clip0_8_31)">
<path d="M12.2425 10.357L11.2997 9.4142L12.2425 8.4714C13.5443 7.16967 13.5443 5.05911 12.2425 3.75736C10.9408 2.45561 8.83021 2.45561 7.52848 3.75736L6.58567 4.70017L5.64286 3.75736L6.58567 2.81455C8.40814 0.9921 11.3629 0.9921 13.1853 2.81455C15.0078 4.63699 15.0078 7.59173 13.1853 9.4142L12.2425 10.357ZM10.3569 12.2427L9.41408 13.1855C7.59168 15.0079 4.63688 15.0079 2.81444 13.1855C0.99199 11.363 0.99199 8.4082 2.81444 6.58579L3.75724 5.64297L4.70006 6.58579L3.75724 7.5286C2.4555 8.83033 2.4555 10.9409 3.75724 12.2427C5.05899 13.5444 7.16954 13.5444 8.47128 12.2427L9.41408 11.2998L10.3569 12.2427ZM9.88548 5.17157L10.8283 6.11438L6.11427 10.8284L5.17146 9.8856L9.88548 5.17157Z" fill="#217FE7"/>
</g>
<defs>
<clipPath id="clip0_8_31">
<rect width="16" height="16" fill="white"/>
</clipPath>
</defs>
</svg>
