<svg width="20" height="20" viewBox="0 0 20 20" fill="none" xmlns="http://www.w3.org/2000/svg">
<g clip-path="url(#clip0_22_396)">
<path d="M3.33415 2.5H16.6675C17.1277 2.5 17.5008 2.8731 17.5008 3.33333V16.6667C17.5008 17.1269 17.1277 17.5 16.6675 17.5H3.33415C2.87391 17.5 2.50082 17.1269 2.50082 16.6667V3.33333C2.50082 2.8731 2.87391 2.5 3.33415 2.5ZM4.16748 4.16667V15.8333H15.8342V4.16667H4.16748ZM6.25082 7.5C5.56046 7.5 5.00082 6.94036 5.00082 6.25C5.00082 5.55964 5.56046 5 6.25082 5C6.94117 5 7.50082 5.55964 7.50082 6.25C7.50082 6.94036 6.94117 7.5 6.25082 7.5ZM5.41748 8.33333H7.08415V14.5833H5.41748V8.33333ZM10.0008 8.69125C10.4878 8.22112 11.0554 7.91667 11.6675 7.91667C13.3933 7.91667 14.5842 9.31575 14.5842 11.0417V14.5833H12.9175V11.0417C12.9175 10.2362 12.2646 9.58333 11.4592 9.58333C10.6538 9.58333 10.0008 10.2362 10.0008 11.0417V14.5833H8.33417V8.33333H10.0008V8.69125Z" fill="#217FE7"/>
</g>
<defs>
<clipPath id="clip0_22_396">
<rect width="20" height="20" fill="white"/>
</clipPath>
</defs>
</svg>
