<svg width="16" height="16" viewBox="0 0 16 16" fill="none" xmlns="http://www.w3.org/2000/svg">
<g clip-path="url(#clip0_21_229)">
<path d="M8.00001 14.6667C4.31811 14.6667 1.33334 11.6819 1.33334 8.00001C1.33334 4.31811 4.31811 1.33334 8.00001 1.33334C11.6819 1.33334 14.6667 4.31811 14.6667 8.00001C14.6667 11.6819 11.6819 14.6667 8.00001 14.6667ZM8.00001 13.3333C10.9455 13.3333 13.3333 10.9455 13.3333 8.00001C13.3333 5.05449 10.9455 2.66668 8.00001 2.66668C5.05449 2.66668 2.66668 5.05449 2.66668 8.00001C2.66668 10.9455 5.05449 13.3333 8.00001 13.3333ZM8.66668 8.00001H11.3333V9.33334H7.33334V4.66668H8.66668V8.00001Z" fill="#217FE7"/>
</g>
<defs>
<clipPath id="clip0_21_229">
<rect width="16" height="16" fill="white"/>
</clipPath>
</defs>
</svg>
